<svg width="35" height="40" viewBox="0 0 35 40" fill="none" xmlns="http://www.w3.org/2000/svg">
<g id="Group 34">
<path id="Ellipse 1 (Stroke)" fill-rule="evenodd" clip-rule="evenodd" d="M17.7632 17.5795C21.6856 17.5795 24.8654 14.3997 24.8654 10.4773C24.8654 6.55479 21.6856 3.375 17.7632 3.375C13.8407 3.375 10.6609 6.55479 10.6609 10.4773C10.6609 14.3997 13.8407 17.5795 17.7632 17.5795ZM17.7632 20.7045C23.4115 20.7045 27.9904 16.1256 27.9904 10.4773C27.9904 4.8289 23.4115 0.25 17.7632 0.25C12.1148 0.25 7.53589 4.8289 7.53589 10.4773C7.53589 16.1256 12.1148 20.7045 17.7632 20.7045Z" fill="black"/>
<path id="Vector 1 (Stroke)" fill-rule="evenodd" clip-rule="evenodd" d="M3.973 37.5579C3.97314 37.5591 3.97328 37.5602 3.97342 37.5614C4.07736 38.4156 3.4707 39.1936 2.61615 39.3004C1.75987 39.4075 0.978949 38.8001 0.871914 37.9438L2.42235 37.75C0.871914 37.9438 0.871791 37.9428 0.871663 37.9418L0.871374 37.9395L0.870691 37.9338L0.868923 37.9188L0.863996 37.8738C0.860174 37.8374 0.85538 37.788 0.850264 37.7266C0.840039 37.6039 0.828496 37.4327 0.820894 37.2198C0.805715 36.7948 0.806088 36.1995 0.865246 35.4896C0.982913 34.0776 1.33708 32.1653 2.30322 30.2331C3.27776 28.284 4.86602 26.3357 7.39997 24.8877C9.92372 23.4456 13.2947 22.5511 17.7633 22.5511C22.2319 22.5511 25.6028 23.4456 28.1265 24.8877C30.6605 26.3357 32.2488 28.284 33.2233 30.2331C34.1894 32.1653 34.5436 34.0776 34.6613 35.4896C34.7204 36.1995 34.7208 36.7948 34.7056 37.2198C34.698 37.4327 34.6865 37.6039 34.6762 37.7266C34.6711 37.788 34.6663 37.8374 34.6625 37.8738L34.6576 37.9188L34.6558 37.9338L34.6551 37.9395L34.6549 37.9418C34.6547 37.9428 34.6546 37.9438 33.1042 37.75L34.6546 37.9438C34.5476 38.8001 33.7666 39.4075 32.9104 39.3004C32.0559 39.1936 31.4492 38.4157 31.5531 37.5616C31.5531 37.5609 31.5532 37.5603 31.5533 37.5597C31.5534 37.5591 31.5534 37.5585 31.5535 37.5579C31.5535 37.5579 31.5535 37.5579 31.5535 37.5579L31.5533 37.5593L31.5546 37.548C31.5561 37.5328 31.5588 37.5056 31.562 37.4671C31.5685 37.3901 31.5769 37.2683 31.5826 37.1083C31.5941 36.7876 31.5944 36.3176 31.5471 35.7491C31.4517 34.6043 31.1666 33.1074 30.4282 31.6306C29.6982 30.1706 28.5166 28.7098 26.5761 27.601C24.6254 26.4863 21.8174 25.6761 17.7633 25.6761C13.7091 25.6761 10.9011 26.4863 8.95041 27.601C7.00993 28.7098 5.8283 30.1706 5.0983 31.6306C4.35989 33.1074 4.07485 34.6043 3.97945 35.7491C3.93208 36.3176 3.93245 36.7876 3.9439 37.1083C3.94962 37.2683 3.95805 37.3901 3.96447 37.4671C3.96768 37.5056 3.97037 37.5328 3.97196 37.548L3.9734 37.5612L3.97317 37.5593L3.973 37.5579Z" fill="black"/>
</g>
</svg>
